<mxfile host="app.diagrams.net" modified="2023-02-03T04:49:31.084Z" agent="5.0 (X11; Linux x86_64) AppleWebKit/537.36 (KHTML, like Gecko) Chrome/108.0.0.0 Safari/537.36" etag="R5MjH6JtoBWL2pPaqerY" version="20.8.16" type="github">
  <diagram id="C5RBs43oDa-KdzZeNtuy" name="Page-1">
    <mxGraphModel dx="1360" dy="807" grid="1" gridSize="10" guides="1" tooltips="1" connect="1" arrows="1" fold="1" page="1" pageScale="1" pageWidth="827" pageHeight="1169" math="0" shadow="0">
      <root>
        <mxCell id="WIyWlLk6GJQsqaUBKTNV-0" />
        <mxCell id="WIyWlLk6GJQsqaUBKTNV-1" parent="WIyWlLk6GJQsqaUBKTNV-0" />
        <mxCell id="umHtUKkya_g5ySiwuMGm-2" style="edgeStyle=orthogonalEdgeStyle;rounded=0;orthogonalLoop=1;jettySize=auto;html=1;exitX=0.5;exitY=1;exitDx=0;exitDy=0;fontSize=14;" edge="1" parent="WIyWlLk6GJQsqaUBKTNV-1" source="umHtUKkya_g5ySiwuMGm-0" target="umHtUKkya_g5ySiwuMGm-1">
          <mxGeometry relative="1" as="geometry" />
        </mxCell>
        <mxCell id="umHtUKkya_g5ySiwuMGm-0" value="&lt;font style=&quot;font-size: 14px;&quot;&gt;Start&lt;/font&gt;" style="ellipse;whiteSpace=wrap;html=1;" vertex="1" parent="WIyWlLk6GJQsqaUBKTNV-1">
          <mxGeometry x="355" y="100" width="130" height="50" as="geometry" />
        </mxCell>
        <mxCell id="umHtUKkya_g5ySiwuMGm-4" style="edgeStyle=orthogonalEdgeStyle;rounded=0;orthogonalLoop=1;jettySize=auto;html=1;exitX=0.5;exitY=1;exitDx=0;exitDy=0;entryX=0.5;entryY=0;entryDx=0;entryDy=0;fontSize=14;" edge="1" parent="WIyWlLk6GJQsqaUBKTNV-1" source="umHtUKkya_g5ySiwuMGm-1" target="umHtUKkya_g5ySiwuMGm-3">
          <mxGeometry relative="1" as="geometry" />
        </mxCell>
        <mxCell id="umHtUKkya_g5ySiwuMGm-1" value="Input radius" style="shape=parallelogram;perimeter=parallelogramPerimeter;whiteSpace=wrap;html=1;fixedSize=1;fontSize=14;" vertex="1" parent="WIyWlLk6GJQsqaUBKTNV-1">
          <mxGeometry x="340" y="200" width="160" height="60" as="geometry" />
        </mxCell>
        <mxCell id="umHtUKkya_g5ySiwuMGm-7" style="edgeStyle=orthogonalEdgeStyle;rounded=0;orthogonalLoop=1;jettySize=auto;html=1;exitX=0.5;exitY=1;exitDx=0;exitDy=0;fontSize=14;" edge="1" parent="WIyWlLk6GJQsqaUBKTNV-1" source="umHtUKkya_g5ySiwuMGm-3" target="umHtUKkya_g5ySiwuMGm-6">
          <mxGeometry relative="1" as="geometry" />
        </mxCell>
        <mxCell id="umHtUKkya_g5ySiwuMGm-3" value="area = 3.14 * radius * radius" style="rounded=0;whiteSpace=wrap;html=1;fontSize=14;" vertex="1" parent="WIyWlLk6GJQsqaUBKTNV-1">
          <mxGeometry x="305" y="320" width="230" height="60" as="geometry" />
        </mxCell>
        <mxCell id="umHtUKkya_g5ySiwuMGm-10" style="edgeStyle=orthogonalEdgeStyle;rounded=0;orthogonalLoop=1;jettySize=auto;html=1;exitX=0.5;exitY=1;exitDx=0;exitDy=0;fontSize=14;" edge="1" parent="WIyWlLk6GJQsqaUBKTNV-1" source="umHtUKkya_g5ySiwuMGm-6" target="umHtUKkya_g5ySiwuMGm-9">
          <mxGeometry relative="1" as="geometry" />
        </mxCell>
        <mxCell id="umHtUKkya_g5ySiwuMGm-6" value="Print area" style="shape=parallelogram;perimeter=parallelogramPerimeter;whiteSpace=wrap;html=1;fixedSize=1;fontSize=14;" vertex="1" parent="WIyWlLk6GJQsqaUBKTNV-1">
          <mxGeometry x="340" y="450" width="160" height="60" as="geometry" />
        </mxCell>
        <mxCell id="umHtUKkya_g5ySiwuMGm-9" value="&lt;font style=&quot;font-size: 14px;&quot;&gt;End&lt;/font&gt;" style="ellipse;whiteSpace=wrap;html=1;" vertex="1" parent="WIyWlLk6GJQsqaUBKTNV-1">
          <mxGeometry x="355" y="560" width="130" height="50" as="geometry" />
        </mxCell>
      </root>
    </mxGraphModel>
  </diagram>
</mxfile>

